<svg width="256" height="256" viewBox="0 0 256 256" fill="none" xmlns="http://www.w3.org/2000/svg">
  <rect width="256" height="256" rx="56" fill="#5865F2"/>
  <g filter="url(#f)">
    <path d="M86 168c-8-14-12-30-12-49 0-18 6-34 14-48 15-7 32-11 50-11s35 4 50 11c8 14 14 30 14 48 0 19-4 35-12 49-12 6-25 10-40 12l-5-10c6-1 12-3 18-6-2-2-4-5-5-8-5 2-11 3-20 3s-15-1-20-3c-1 3-3 6-5 8 6 3 12 5 18 6l-5 10c-15-2-28-6-40-12Zm35-56c0 9 8 16 17 16s17-7 17-16-8-16-17-16-17 7-17 16Z" fill="white"/>
  </g>
  <defs>
    <filter id="f" x="50" y="40" width="156" height="148" color-interpolation-filters="sRGB" filterUnits="userSpaceOnUse">
      <feFlood flood-opacity="0" result="BackgroundImageFix"/>
      <feColorMatrix in="SourceAlpha" type="matrix" values="0 0 0 0 0 0 0 0 0 0 0 0 0 0 0 0 0 0 127 0" result="hardAlpha"/>
      <feOffset dy="2"/>
      <feGaussianBlur stdDeviation="6"/>
      <feComposite in2="hardAlpha" operator="out"/>
      <feColorMatrix type="matrix" values="0 0 0 0 0 0 0 0 0 0 0 0 0 0 0 0 0 0 0.2 0"/>
      <feBlend mode="normal" in2="BackgroundImageFix" result="effect1_dropShadow"/>
      <feBlend mode="normal" in="SourceGraphic" in2="effect1_dropShadow" result="shape"/>
    </filter>
  </defs>
</svg>


